<svg xmlns="http://www.w3.org/2000/svg" width="10.977" height="14.5" viewBox="0 0 10.977 14.5">
    <g>
        <path fill="#3b77ff" d="M10.229 5.358H8.981V3.512a3.493 3.493 0 0 0-6.8-1.2.749.749 0 0 0 1.412.5 2 2 0 0 1 3.892.7v1.846H.748A.748.748 0 0 0 0 6.107v6.786a.753.753 0 0 0 .409.669 12.2 12.2 0 0 0 5.079.878 12.2 12.2 0 0 0 5.079-.878.753.753 0 0 0 .409-.669V6.107a.748.748 0 0 0-.748-.748zm-.749 7.026a12.723 12.723 0 0 1-3.992.559 12.669 12.669 0 0 1-3.988-.559V6.855h7.98z" transform="translate(0 .06)"/>
    </g>
</svg>
