<svg xmlns="http://www.w3.org/2000/svg" width="23.21" height="23.983" viewBox="0 0 23.21 23.983">
    <g id="구성_요소_5_1">
        <path id="패스_22" d="M23.086 6.355a1.6 1.6 0 0 0-1.475-.975h-7.427v1.547h7.427a.046.046 0 0 1 .052.052V12.6H1.547V6.979a.046.046 0 0 1 .053-.052h7.426V5.38H1.6a1.6 1.6 0 0 0-1.475.974A1.661 1.661 0 0 0 0 6.979v19.238a1.6 1.6 0 0 0 1.6 1.6h20.011a1.6 1.6 0 0 0 1.6-1.6V6.979a1.661 1.661 0 0 0-.124-.624zm-1.424 19.862a.052.052 0 0 1-.052.052H1.6a.052.052 0 0 1-.052-.052V14.148h20.114z" transform="translate(0 -3.833)"/>
        <path id="사각형_30" d="M0 0H8.252V1.547H0z" transform="translate(7.479 1.547)"/>
        <path id="패스_23" d="M10.274 7.589a.774.774 0 0 0 .774-.763V3.154a.774.774 0 1 0-1.547 0v3.672a.774.774 0 0 0 .773.763z" transform="translate(-4.6 -2.38)"/>
        <path id="패스_24" d="M33.274 7.589a.774.774 0 0 0 .774-.763V3.154a.774.774 0 0 0-1.547 0v3.672a.774.774 0 0 0 .773.763z" transform="translate(-15.738 -2.38)"/>
    </g>
</svg>
