<svg xmlns="http://www.w3.org/2000/svg" width="24.892" height="24.334" viewBox="0 0 24.892 24.334">
    <g>
        <path fill="none" d="M88.466 37.933a1.289 1.289 0 0 0 .784.588 1.331 1.331 0 0 0 .99-.15 1.3 1.3 0 0 0 .48-1.79l-.031-.057-3.476-7.344H84.33z" transform="translate(-79.161 -15.78)"/>
        <path d="M87.224 27.815l-3.156-6.674h1.64a.774.774 0 1 0 0-1.547h-7.02a2.734 2.734 0 1 1 0-5.467h7.02a.774.774 0 1 0 0-1.547h-7.02a4.281 4.281 0 0 0-.98 8.469l4.523 9.542a.073.073 0 0 0 .031.057A2.837 2.837 0 0 0 84 31.977a3.058 3.058 0 0 0 .743.1 2.8 2.8 0 0 0 1.424-.387 2.857 2.857 0 0 0 1.062-3.873zm-1.212 1.738a1.31 1.31 0 0 1-.624.779 1.331 1.331 0 0 1-.99.129 1.289 1.289 0 0 1-.784-.588L79.487 21.1h2.883l3.476 7.365.031.057a1.3 1.3 0 0 1 .135 1.031z" transform="translate(-74.308 -7.741)"/>
        <path d="M98.368 21.142h-4.384a.774.774 0 0 1-.774-.774v-7.014a.774.774 0 0 1 .774-.774h4.384a.774.774 0 0 1 .774.774v7.014a.774.774 0 0 1-.774.774zm-3.61-1.547h2.837v-5.468h-2.838z" transform="translate(-83.461 -7.742)"/>
        <path d="M111.7 21.427a.774.774 0 0 1-.356-.088l-9.212-4.833a.774.774 0 0 1-.418-.686V8.811a.774.774 0 0 1 .418-.686l9.207-4.825a.779.779 0 0 1 .758 0 .768.768 0 0 1 .371.66v16.672a.769.769 0 0 1-.371.66.753.753 0 0 1-.4.134zm-8.438-6.065l7.664 4.013V5.263l-7.664 4.023z" transform="translate(-87.577 -3.199)"/>
    </g>
</svg>
