<svg xmlns="http://www.w3.org/2000/svg" width="16.505" height="23.457" viewBox="0 0 16.505 23.457">
    <g>
        <path d="M166.752 19.385A8.252 8.252 0 1 1 175 11.132a8.252 8.252 0 0 1-8.248 8.253zm0-14.957a6.7 6.7 0 1 0 6.7 6.7 6.7 6.7 0 0 0-6.7-6.701z" transform="translate(-158.5 -2.88)"/>
        <path fill="#fff" d="M0 0L3.363 7.123" transform="translate(11.863 15.561)"/>
        <path d="M184.132 40.27a.769.769 0 0 1-.7-.444l-3.368-7.118a.779.779 0 0 1 1.4-.665l3.363 7.118a.779.779 0 0 1-.7 1.109z" transform="translate(-168.916 -16.813)"/>
    </g>
</svg>
