<svg xmlns="http://www.w3.org/2000/svg" width="25" height="23.911" viewBox="0 0 25 23.911">
    <g>
        <path fill="#ffd93b" d="M24.928 9.052a1.331 1.331 0 0 0-1.122-.905l-6.8-.824L13.713.752a1.358 1.358 0 0 0-2.426 0L7.993 7.287l-6.8.86a1.331 1.331 0 0 0-1.122.905 1.349 1.349 0 0 0 .353 1.412l5.169 4.924L4.282 22.3a1.349 1.349 0 0 0 .525 1.34 1.376 1.376 0 0 0 1.439.118l6.254-3.265 6.255 3.268a1.421 1.421 0 0 0 .634.154 1.313 1.313 0 0 0 .806-.272 1.349 1.349 0 0 0 .525-1.34l-1.312-6.915 5.169-4.924a1.331 1.331 0 0 0 .351-1.412z" transform="translate(-.002 -.004)"/>
    </g>
</svg>
