<svg xmlns="http://www.w3.org/2000/svg" width="27" height="27" viewBox="0 0 27 27">
    <defs>
        <style>
            .cls-2{fill:#3b77ff}
        </style>
    </defs>
    <g id="레이어_1" transform="translate(.5 .5)">
        <!-- <circle id="타원_2-2" cx="13" cy="13" r="13" fill="#fff" stroke="#457af6"/> -->
        <path id="패스_85" d="M29.838 18.853l-3.113-2.994a.645.645 0 0 0-.88 0l-9.291 8.933a.586.586 0 0 0-.174.351l-.386 2.994a.587.587 0 0 0 .149.467.646.646 0 0 0 .469.2H20.1a.649.649 0 0 0 .457-.176l7.472-7.185 1.835-1.76a.582.582 0 0 0-.026-.83zM19.85 27.61h-2.528l.266-2.12 6.862-6.6 2.233 2.148zm7.714-7.41l-2.234-2.154.955-.914 2.233 2.144z" class="cls-2" transform="translate(-9.843 -9.378)"/>
        <path id="패스_86" d="M38.327 45.56h-5.264a.6.6 0 1 0 0 1.2h5.264a.6.6 0 1 0 0-1.2z" class="cls-2" transform="translate(-19.465 -27.328)"/>
    </g>
</svg>
