<svg xmlns="http://www.w3.org/2000/svg" id="레이어_2" width="94.202" height="82.214" viewBox="0 0 94.202 82.214">
    <defs>
        <style>
            .cls-1{fill:#3b77ff}
        </style>
    </defs>
    <g id="레이어_1">
        <path id="패스_38" d="M12.606 0a18.972 18.972 0 0 1 9.367 2.053 2.13 2.13 0 0 1 .846 3.076 2.2 2.2 0 0 1-1.246 1.13 2.222 2.222 0 0 1-1.584-.2 13.742 13.742 0 0 0-3.33-1.177 18.326 18.326 0 0 0-3.93-.377 11.066 11.066 0 0 0-3.122.4 7.444 7.444 0 0 0-2.307 1.1 5.176 5.176 0 0 0-1.523 1.63 3.907 3.907 0 0 0-.531 1.976v.5a4.968 4.968 0 0 0 .354 1.93 3.768 3.768 0 0 0 1.254 1.5 8.659 8.659 0 0 0 2.422 1.2 34.437 34.437 0 0 0 3.884 1.03 35.021 35.021 0 0 1 5.56 1.6 12.574 12.574 0 0 1 3.653 2.13 7.006 7.006 0 0 1 2 2.8 10.213 10.213 0 0 1 .6 3.6v.7a9 9 0 0 1-3.3 7.39q-3.315 2.676-9.513 2.676a22.463 22.463 0 0 1-6.083-.823 17.688 17.688 0 0 1-4.984-2.184 1.976 1.976 0 0 1-1.1-1.446 2.584 2.584 0 0 1 .423-1.776 2.415 2.415 0 0 1 1.354-1.077 1.984 1.984 0 0 1 1.653.331A18.041 18.041 0 0 0 7.6 31.529a16.58 16.58 0 0 0 4.806.677 8.852 8.852 0 0 0 5.66-1.538 4.614 4.614 0 0 0 1.923-3.753v-.554a5.383 5.383 0 0 0-.4-2.176 3.96 3.96 0 0 0-1.346-1.63 9.067 9.067 0 0 0-2.507-1.223 37.067 37.067 0 0 0-3.845-1.032 38.4 38.4 0 0 1-5.137-1.377 12.135 12.135 0 0 1-3.6-1.93 7.137 7.137 0 0 1-2.161-2.751 10 10 0 0 1-.7-3.976v-.608a9.09 9.09 0 0 1 .823-3.845 8.759 8.759 0 0 1 2.408-3.076A11.374 11.374 0 0 1 7.369.707 17.564 17.564 0 0 1 12.606 0z" class="cls-1" transform="translate(.027 .003)"/>
        <path id="패스_39" d="M66.235.39a2.907 2.907 0 0 1 1.623.469 1.692 1.692 0 0 1 .769 1.541v30.281a4.144 4.144 0 0 1-.769 2.876 3.845 3.845 0 0 1-2.707.769 5.214 5.214 0 0 1-1.292-.092 2.622 2.622 0 0 1-1.031-.523 6.36 6.36 0 0 1-1.054-1.154 20.333 20.333 0 0 1-1.246-2l-12.12-21a24.264 24.264 0 0 1-1.115-2.238 18.266 18.266 0 0 1-.931-2.553v27.722a1.676 1.676 0 0 1-.723 1.538 3.015 3.015 0 0 1-3.253 0 1.684 1.684 0 0 1-.769-1.538V4.2a4.194 4.194 0 0 1 .769-2.884 3.845 3.845 0 0 1 2.709-.772 5.629 5.629 0 0 1 1.254.123 2.361 2.361 0 0 1 1.023.523A6.975 6.975 0 0 1 48.4 2.343a20.334 20.334 0 0 1 1.246 2l12.183 20.979c.431.769.823 1.484 1.177 2.253a17.349 17.349 0 0 1 .923 2.553V2.4a1.707 1.707 0 0 1 .707-1.541 2.784 2.784 0 0 1 1.6-.469z" class="cls-1" transform="translate(-9.591 -.087)"/>
        <path id="패스_40" d="M89.736.389a3.076 3.076 0 0 1 1.753.469 1.792 1.792 0 0 1 .769 1.6v19.21q0 5.652 2.03 8.082t6.483 2.43c2.968 0 5.137-.769 6.483-2.43s2.03-4.314 2.03-8.082V2.489a1.776 1.776 0 0 1 .769-1.6 3.314 3.314 0 0 1 3.5 0 1.792 1.792 0 0 1 .769 1.6v19.133a25.539 25.539 0 0 1-.854 7.113 11.151 11.151 0 0 1-2.576 4.676 9.813 9.813 0 0 1-4.23 2.576 19.61 19.61 0 0 1-5.883.769 19.426 19.426 0 0 1-5.829-.769 9.813 9.813 0 0 1-4.23-2.576 11.359 11.359 0 0 1-2.584-4.683 24.908 24.908 0 0 1-.907-7.106V2.489A1.792 1.792 0 0 1 88 .889a3.076 3.076 0 0 1 1.738-.5z" class="cls-1" transform="translate(-20.126 -.087)"/>
        <path id="패스_41" d="M15.56 60.3q7.613 0 11.489 3.96t3.845 12.412v2.853q0 8.459-3.984 12.42T15.521 95.9H7.4a4.534 4.534 0 0 1-3.03-.769 3.994 3.994 0 0 1-.831-2.9V64.007a3.969 3.969 0 0 1 .831-2.9A4.349 4.349 0 0 1 7.4 60.3zm-.654 31.3q5.606 0 8.29-2.922t2.676-9.49v-2.062a22.671 22.671 0 0 0-.623-5.683 9.851 9.851 0 0 0-1.93-3.907 7.413 7.413 0 0 0-3.407-2.222 15.811 15.811 0 0 0-5.006-.708H8.554V91.6z" class="cls-1" transform="translate(-.797 -13.925)"/>
        <path id="패스_42" d="M60.458 60a3.338 3.338 0 0 1 1.776.477 3.376 3.376 0 0 1 1.3 1.761l11.843 30.59a2.307 2.307 0 0 1 0 1.923A2.238 2.238 0 0 1 74 95.881a3.761 3.761 0 0 1-1.953.077 2.069 2.069 0 0 1-1.4-1.484l-3.307-8.959H53.5L50.045 94.6a1.9 1.9 0 0 1-1.277 1.377 3.184 3.184 0 0 1-1.876-.123 2.4 2.4 0 0 1-1.353-1.077 2.153 2.153 0 0 1 0-1.83l11.92-30.757a3.476 3.476 0 0 1 1.241-1.776A3.222 3.222 0 0 1 60.458 60zm-.046 6.152c-.338 1.1-.669 2.146-1 3.13s-.769 2.107-1.207 3.376l-3.253 8.652h10.889l-3.23-8.659q-.708-1.884-1.223-3.422c-.353-1.071-.676-2.086-.976-3.078z" class="cls-1" transform="translate(-10.45 -13.855)"/>
        <path id="패스_43" d="M112.883 60.277a2.469 2.469 0 0 1 1.277 1.2 1.984 1.984 0 0 1-.277 1.907l-10.69 18.141v12.412a1.8 1.8 0 0 1-.769 1.607 3.322 3.322 0 0 1-3.507 0 1.8 1.8 0 0 1-.769-1.607V81.525l-10.6-18.1a2.107 2.107 0 0 1-.277-1.776 2.307 2.307 0 0 1 1.229-1.318 2.453 2.453 0 0 1 1.807-.308 2.246 2.246 0 0 1 1.538 1.207l9.044 15.719 8.759-15.673a2.307 2.307 0 0 1 1.423-1.223 2.63 2.63 0 0 1 1.812.224z" class="cls-1" transform="translate(-20.117 -13.848)"/>
    </g>
</svg>
