<svg xmlns="http://www.w3.org/2000/svg" id="구성_요소_7_4" width="15" height="19.457" viewBox="0 0 14.505 19.457">
    <defs>
        <style>
            .cls-1{fill:#3b77ff}
        </style>
    </defs>
    <path id="패스_29" d="M165.752 16.57a7.057 7.057 0 0 1-7.252-6.845 7.264 7.264 0 0 1 14.5 0 7.058 7.058 0 0 1-7.248 6.845zm0-12.407a5.734 5.734 0 0 0-5.892 5.562 5.9 5.9 0 0 0 11.785 0 5.734 5.734 0 0 0-5.893-5.562z" class="cls-1" transform="translate(-158.5 -2.88)"/>
    <path id="선_7" fill="#fff" d="M0 0L2.955 5.908" transform="translate(10.425 12.907)"/>
    <path id="패스_32" d="M183.632 38.8a.68.68 0 0 1-.616-.368l-2.96-5.9a.632.632 0 0 1 .347-.813.706.706 0 0 1 .886.261l2.955 5.9a.615.615 0 0 1-.04.617.694.694 0 0 1-.572.3z" class="cls-1" transform="translate(-170.261 -19.344)"/>
</svg>
